<mxfile host="app.diagrams.net" agent="Mozilla/5.0 (X11; Linux x86_64) AppleWebKit/537.36 (KHTML, like Gecko) Chrome/136.0.0.0 Safari/537.36" version="27.1.4">
  <diagram name="PÃ¡gina-1" id="UkjS4kgP-VDyb3cZycc5">
    <mxGraphModel dx="758" dy="1257" grid="1" gridSize="10" guides="1" tooltips="1" connect="1" arrows="1" fold="1" page="1" pageScale="1" pageWidth="1169" pageHeight="827" math="0" shadow="0">
      <root>
        <mxCell id="0" />
        <mxCell id="1" parent="0" />
        <mxCell id="QGq4IHv5kDLC5Aj4zrVq-229" value="" style="rounded=0;whiteSpace=wrap;html=1;labelBackgroundColor=none;fontColor=default;movable=1;resizable=1;rotatable=1;deletable=1;editable=1;locked=0;connectable=1;" vertex="1" parent="1">
          <mxGeometry x="520" y="-380" width="900" height="1320" as="geometry" />
        </mxCell>
        <mxCell id="QGq4IHv5kDLC5Aj4zrVq-230" style="edgeStyle=orthogonalEdgeStyle;rounded=0;orthogonalLoop=1;jettySize=auto;html=1;exitX=0;exitY=0.3333333333333333;exitDx=0;exitDy=0;exitPerimeter=0;entryX=0;entryY=0.5;entryDx=0;entryDy=0;endArrow=none;startFill=0;fillColor=#60a917;strokeColor=#2D7600;" edge="1" parent="1" source="QGq4IHv5kDLC5Aj4zrVq-248" target="QGq4IHv5kDLC5Aj4zrVq-288">
          <mxGeometry relative="1" as="geometry">
            <Array as="points">
              <mxPoint x="480" y="700" />
              <mxPoint x="480" y="-260" />
            </Array>
          </mxGeometry>
        </mxCell>
        <mxCell id="QGq4IHv5kDLC5Aj4zrVq-231" style="rounded=0;orthogonalLoop=1;jettySize=auto;html=1;exitX=1;exitY=0.3333333333333333;exitDx=0;exitDy=0;exitPerimeter=0;endArrow=none;startFill=0;edgeStyle=orthogonalEdgeStyle;entryX=0;entryY=0;entryDx=0;entryDy=0;fillColor=#60a917;strokeColor=#2D7600;" edge="1" parent="1" source="QGq4IHv5kDLC5Aj4zrVq-248" target="QGq4IHv5kDLC5Aj4zrVq-302">
          <mxGeometry relative="1" as="geometry">
            <mxPoint x="180" y="-140" as="targetPoint" />
            <Array as="points">
              <mxPoint x="480" y="700" />
              <mxPoint x="480" y="-214" />
            </Array>
          </mxGeometry>
        </mxCell>
        <mxCell id="QGq4IHv5kDLC5Aj4zrVq-232" style="rounded=0;orthogonalLoop=1;jettySize=auto;html=1;exitX=1;exitY=0.3333333333333333;exitDx=0;exitDy=0;exitPerimeter=0;edgeStyle=orthogonalEdgeStyle;endArrow=none;startFill=0;fillColor=#60a917;strokeColor=#2D7600;entryX=0.5;entryY=0;entryDx=0;entryDy=0;" edge="1" parent="1" source="QGq4IHv5kDLC5Aj4zrVq-248" target="QGq4IHv5kDLC5Aj4zrVq-304">
          <mxGeometry relative="1" as="geometry">
            <mxPoint x="110" y="70" as="sourcePoint" />
            <mxPoint x="430" y="-180" as="targetPoint" />
            <Array as="points">
              <mxPoint x="480" y="700" />
              <mxPoint x="480" y="-170" />
              <mxPoint x="622" y="-170" />
            </Array>
          </mxGeometry>
        </mxCell>
        <mxCell id="QGq4IHv5kDLC5Aj4zrVq-233" style="edgeStyle=orthogonalEdgeStyle;rounded=0;orthogonalLoop=1;jettySize=auto;html=1;exitX=1;exitY=0.3333333333333333;exitDx=0;exitDy=0;exitPerimeter=0;entryX=0;entryY=0;entryDx=0;entryDy=0;fillColor=#60a917;strokeColor=#2D7600;endArrow=none;startFill=0;" edge="1" parent="1" source="QGq4IHv5kDLC5Aj4zrVq-248" target="QGq4IHv5kDLC5Aj4zrVq-305">
          <mxGeometry relative="1" as="geometry">
            <Array as="points">
              <mxPoint x="480" y="700" />
              <mxPoint x="480" y="-94" />
            </Array>
          </mxGeometry>
        </mxCell>
        <mxCell id="QGq4IHv5kDLC5Aj4zrVq-234" style="edgeStyle=orthogonalEdgeStyle;rounded=0;orthogonalLoop=1;jettySize=auto;html=1;exitX=1;exitY=0.3333333333333333;exitDx=0;exitDy=0;exitPerimeter=0;fillColor=#60a917;strokeColor=#2D7600;endArrow=none;startFill=0;entryX=0;entryY=0;entryDx=0;entryDy=0;" edge="1" parent="1" source="QGq4IHv5kDLC5Aj4zrVq-248" target="QGq4IHv5kDLC5Aj4zrVq-306">
          <mxGeometry relative="1" as="geometry">
            <mxPoint x="120" y="60.059999999999775" as="sourcePoint" />
            <mxPoint x="740" y="-110" as="targetPoint" />
            <Array as="points">
              <mxPoint x="480" y="700" />
              <mxPoint x="480" y="-110" />
              <mxPoint x="760" y="-110" />
              <mxPoint x="760" y="-94" />
            </Array>
          </mxGeometry>
        </mxCell>
        <mxCell id="QGq4IHv5kDLC5Aj4zrVq-235" style="edgeStyle=orthogonalEdgeStyle;rounded=0;orthogonalLoop=1;jettySize=auto;html=1;exitX=1;exitY=0.3333333333333333;exitDx=0;exitDy=0;exitPerimeter=0;entryX=0;entryY=0;entryDx=0;entryDy=0;endArrow=none;startFill=0;fillColor=#60a917;strokeColor=#2D7600;" edge="1" parent="1" source="QGq4IHv5kDLC5Aj4zrVq-248" target="QGq4IHv5kDLC5Aj4zrVq-307">
          <mxGeometry relative="1" as="geometry">
            <Array as="points">
              <mxPoint x="480" y="700" />
              <mxPoint x="480" y="-34" />
            </Array>
          </mxGeometry>
        </mxCell>
        <mxCell id="QGq4IHv5kDLC5Aj4zrVq-236" style="edgeStyle=orthogonalEdgeStyle;rounded=0;orthogonalLoop=1;jettySize=auto;html=1;exitX=1;exitY=0.3333333333333333;exitDx=0;exitDy=0;exitPerimeter=0;entryX=0.5;entryY=0;entryDx=0;entryDy=0;fillColor=#60a917;strokeColor=#2D7600;endArrow=none;startFill=0;" edge="1" parent="1" source="QGq4IHv5kDLC5Aj4zrVq-248" target="QGq4IHv5kDLC5Aj4zrVq-308">
          <mxGeometry relative="1" as="geometry">
            <Array as="points">
              <mxPoint x="480" y="700" />
              <mxPoint x="480" y="-50" />
              <mxPoint x="830" y="-50" />
              <mxPoint x="830" y="-40" />
            </Array>
          </mxGeometry>
        </mxCell>
        <mxCell id="QGq4IHv5kDLC5Aj4zrVq-237" style="edgeStyle=orthogonalEdgeStyle;rounded=0;orthogonalLoop=1;jettySize=auto;html=1;exitX=1;exitY=0.3333333333333333;exitDx=0;exitDy=0;exitPerimeter=0;entryX=0;entryY=0;entryDx=0;entryDy=0;fillColor=#60a917;strokeColor=#2D7600;endArrow=none;startFill=0;" edge="1" parent="1" source="QGq4IHv5kDLC5Aj4zrVq-248" target="QGq4IHv5kDLC5Aj4zrVq-320">
          <mxGeometry relative="1" as="geometry">
            <Array as="points">
              <mxPoint x="480" y="700" />
              <mxPoint x="480" y="50" />
              <mxPoint x="584" y="50" />
            </Array>
          </mxGeometry>
        </mxCell>
        <mxCell id="QGq4IHv5kDLC5Aj4zrVq-238" style="edgeStyle=orthogonalEdgeStyle;rounded=0;orthogonalLoop=1;jettySize=auto;html=1;exitX=1;exitY=0.3333333333333333;exitDx=0;exitDy=0;exitPerimeter=0;entryX=0.5;entryY=0;entryDx=0;entryDy=0;fillColor=#60a917;strokeColor=#2D7600;endArrow=none;startFill=0;" edge="1" parent="1" source="QGq4IHv5kDLC5Aj4zrVq-248" target="QGq4IHv5kDLC5Aj4zrVq-322">
          <mxGeometry relative="1" as="geometry">
            <Array as="points">
              <mxPoint x="480" y="700" />
              <mxPoint x="480" y="10" />
              <mxPoint x="890" y="10" />
              <mxPoint x="890" y="70" />
            </Array>
          </mxGeometry>
        </mxCell>
        <mxCell id="QGq4IHv5kDLC5Aj4zrVq-239" style="edgeStyle=orthogonalEdgeStyle;rounded=0;orthogonalLoop=1;jettySize=auto;html=1;exitX=1;exitY=0.3333333333333333;exitDx=0;exitDy=0;exitPerimeter=0;entryX=0.5;entryY=0;entryDx=0;entryDy=0;fillColor=#60a917;strokeColor=#2D7600;endArrow=none;startFill=0;" edge="1" parent="1" source="QGq4IHv5kDLC5Aj4zrVq-248" target="QGq4IHv5kDLC5Aj4zrVq-321">
          <mxGeometry relative="1" as="geometry">
            <Array as="points">
              <mxPoint x="480" y="700" />
              <mxPoint x="480" y="30" />
              <mxPoint x="767" y="30" />
            </Array>
          </mxGeometry>
        </mxCell>
        <mxCell id="QGq4IHv5kDLC5Aj4zrVq-240" style="edgeStyle=orthogonalEdgeStyle;rounded=0;orthogonalLoop=1;jettySize=auto;html=1;exitX=1;exitY=0.3333333333333333;exitDx=0;exitDy=0;exitPerimeter=0;entryX=0.5;entryY=0;entryDx=0;entryDy=0;endArrow=none;startFill=0;fillColor=#60a917;strokeColor=#2D7600;" edge="1" parent="1" source="QGq4IHv5kDLC5Aj4zrVq-248" target="QGq4IHv5kDLC5Aj4zrVq-325">
          <mxGeometry relative="1" as="geometry">
            <Array as="points">
              <mxPoint x="480" y="700" />
              <mxPoint x="480" y="120" />
              <mxPoint x="997" y="120" />
            </Array>
          </mxGeometry>
        </mxCell>
        <mxCell id="QGq4IHv5kDLC5Aj4zrVq-241" style="edgeStyle=orthogonalEdgeStyle;rounded=0;orthogonalLoop=1;jettySize=auto;html=1;exitX=1;exitY=0.3333333333333333;exitDx=0;exitDy=0;exitPerimeter=0;entryX=0.5;entryY=0;entryDx=0;entryDy=0;endArrow=none;startFill=0;fillColor=#60a917;strokeColor=#2D7600;" edge="1" parent="1" source="QGq4IHv5kDLC5Aj4zrVq-248" target="QGq4IHv5kDLC5Aj4zrVq-324">
          <mxGeometry relative="1" as="geometry">
            <Array as="points">
              <mxPoint x="480" y="700" />
              <mxPoint x="480" y="140" />
              <mxPoint x="822" y="140" />
            </Array>
          </mxGeometry>
        </mxCell>
        <mxCell id="QGq4IHv5kDLC5Aj4zrVq-242" style="edgeStyle=orthogonalEdgeStyle;rounded=0;orthogonalLoop=1;jettySize=auto;html=1;exitX=1;exitY=0.3333333333333333;exitDx=0;exitDy=0;exitPerimeter=0;entryX=0.5;entryY=0;entryDx=0;entryDy=0;endArrow=none;startFill=0;fillColor=#60a917;strokeColor=#2D7600;" edge="1" parent="1" source="QGq4IHv5kDLC5Aj4zrVq-248" target="QGq4IHv5kDLC5Aj4zrVq-323">
          <mxGeometry relative="1" as="geometry">
            <Array as="points">
              <mxPoint x="480" y="700" />
              <mxPoint x="480" y="160" />
            </Array>
          </mxGeometry>
        </mxCell>
        <mxCell id="QGq4IHv5kDLC5Aj4zrVq-243" style="edgeStyle=orthogonalEdgeStyle;rounded=0;orthogonalLoop=1;jettySize=auto;html=1;exitX=1;exitY=0.3333333333333333;exitDx=0;exitDy=0;exitPerimeter=0;entryX=0.5;entryY=0;entryDx=0;entryDy=0;fillColor=#60a917;strokeColor=#2D7600;endArrow=none;startFill=0;" edge="1" parent="1" source="QGq4IHv5kDLC5Aj4zrVq-248" target="QGq4IHv5kDLC5Aj4zrVq-342">
          <mxGeometry relative="1" as="geometry">
            <Array as="points">
              <mxPoint x="480" y="700" />
              <mxPoint x="480" y="500" />
              <mxPoint x="1257" y="500" />
            </Array>
          </mxGeometry>
        </mxCell>
        <mxCell id="QGq4IHv5kDLC5Aj4zrVq-244" style="edgeStyle=orthogonalEdgeStyle;rounded=0;orthogonalLoop=1;jettySize=auto;html=1;exitX=1;exitY=0.3333333333333333;exitDx=0;exitDy=0;exitPerimeter=0;entryX=0.5;entryY=0;entryDx=0;entryDy=0;fillColor=#60a917;strokeColor=#2D7600;endArrow=none;startFill=0;" edge="1" parent="1" source="QGq4IHv5kDLC5Aj4zrVq-248" target="QGq4IHv5kDLC5Aj4zrVq-341">
          <mxGeometry relative="1" as="geometry">
            <Array as="points">
              <mxPoint x="480" y="700" />
              <mxPoint x="480" y="520" />
              <mxPoint x="1054" y="520" />
            </Array>
          </mxGeometry>
        </mxCell>
        <mxCell id="QGq4IHv5kDLC5Aj4zrVq-245" style="edgeStyle=orthogonalEdgeStyle;rounded=0;orthogonalLoop=1;jettySize=auto;html=1;exitX=1;exitY=0.3333333333333333;exitDx=0;exitDy=0;exitPerimeter=0;entryX=0.5;entryY=0;entryDx=0;entryDy=0;fillColor=#60a917;strokeColor=#2D7600;endArrow=none;startFill=0;" edge="1" parent="1" source="QGq4IHv5kDLC5Aj4zrVq-248" target="QGq4IHv5kDLC5Aj4zrVq-340">
          <mxGeometry relative="1" as="geometry">
            <Array as="points">
              <mxPoint x="480" y="700" />
              <mxPoint x="480" y="540" />
              <mxPoint x="834" y="540" />
            </Array>
          </mxGeometry>
        </mxCell>
        <mxCell id="QGq4IHv5kDLC5Aj4zrVq-246" style="edgeStyle=orthogonalEdgeStyle;rounded=0;orthogonalLoop=1;jettySize=auto;html=1;exitX=1;exitY=0.3333333333333333;exitDx=0;exitDy=0;exitPerimeter=0;entryX=0.5;entryY=0;entryDx=0;entryDy=0;fillColor=#60a917;strokeColor=#2D7600;endArrow=none;startFill=0;" edge="1" parent="1" source="QGq4IHv5kDLC5Aj4zrVq-248" target="QGq4IHv5kDLC5Aj4zrVq-339">
          <mxGeometry relative="1" as="geometry">
            <Array as="points">
              <mxPoint x="480" y="700" />
              <mxPoint x="480" y="560" />
              <mxPoint x="627" y="560" />
              <mxPoint x="627" y="580" />
            </Array>
          </mxGeometry>
        </mxCell>
        <mxCell id="QGq4IHv5kDLC5Aj4zrVq-247" style="edgeStyle=orthogonalEdgeStyle;rounded=0;orthogonalLoop=1;jettySize=auto;html=1;exitX=1;exitY=0.3333333333333333;exitDx=0;exitDy=0;exitPerimeter=0;entryX=0.5;entryY=0;entryDx=0;entryDy=0;fillColor=#60a917;strokeColor=#2D7600;endArrow=none;startFill=0;" edge="1" parent="1" source="QGq4IHv5kDLC5Aj4zrVq-248" target="QGq4IHv5kDLC5Aj4zrVq-338">
          <mxGeometry relative="1" as="geometry">
            <Array as="points">
              <mxPoint x="480" y="700" />
              <mxPoint x="480" y="710" />
              <mxPoint x="968" y="710" />
            </Array>
          </mxGeometry>
        </mxCell>
        <mxCell id="QGq4IHv5kDLC5Aj4zrVq-248" value="Administrador" style="shape=umlActor;verticalLabelPosition=bottom;verticalAlign=top;html=1;" vertex="1" parent="1">
          <mxGeometry x="430" y="680" width="30" height="60" as="geometry" />
        </mxCell>
        <mxCell id="QGq4IHv5kDLC5Aj4zrVq-249" style="edgeStyle=orthogonalEdgeStyle;rounded=0;orthogonalLoop=1;jettySize=auto;html=1;exitX=0;exitY=0.3333333333333333;exitDx=0;exitDy=0;exitPerimeter=0;endArrow=none;startFill=0;fillColor=#1ba1e2;strokeColor=#006EAF;entryX=0;entryY=1;entryDx=0;entryDy=0;" edge="1" parent="1" source="QGq4IHv5kDLC5Aj4zrVq-275" target="QGq4IHv5kDLC5Aj4zrVq-288">
          <mxGeometry relative="1" as="geometry">
            <mxPoint x="400" y="-200" as="targetPoint" />
            <Array as="points">
              <mxPoint x="500" y="790" />
              <mxPoint x="500" y="-246" />
            </Array>
          </mxGeometry>
        </mxCell>
        <mxCell id="QGq4IHv5kDLC5Aj4zrVq-250" style="edgeStyle=orthogonalEdgeStyle;rounded=0;orthogonalLoop=1;jettySize=auto;html=1;exitX=1;exitY=0.3333333333333333;exitDx=0;exitDy=0;exitPerimeter=0;entryX=0;entryY=0.5;entryDx=0;entryDy=0;endArrow=none;startFill=0;fillColor=#1ba1e2;strokeColor=#006EAF;" edge="1" parent="1" source="QGq4IHv5kDLC5Aj4zrVq-275" target="QGq4IHv5kDLC5Aj4zrVq-302">
          <mxGeometry relative="1" as="geometry">
            <Array as="points">
              <mxPoint x="500" y="790" />
              <mxPoint x="500" y="-200" />
            </Array>
          </mxGeometry>
        </mxCell>
        <mxCell id="QGq4IHv5kDLC5Aj4zrVq-251" style="edgeStyle=orthogonalEdgeStyle;rounded=0;orthogonalLoop=1;jettySize=auto;html=1;exitX=1;exitY=0.3333333333333333;exitDx=0;exitDy=0;exitPerimeter=0;fillColor=#1ba1e2;strokeColor=#006EAF;endArrow=none;startFill=0;entryX=0;entryY=0;entryDx=0;entryDy=0;" edge="1" parent="1" source="QGq4IHv5kDLC5Aj4zrVq-275" target="QGq4IHv5kDLC5Aj4zrVq-304">
          <mxGeometry relative="1" as="geometry">
            <mxPoint x="110" y="160" as="sourcePoint" />
            <mxPoint x="536" y="-160" as="targetPoint" />
            <Array as="points">
              <mxPoint x="500" y="790" />
              <mxPoint x="500" y="-154" />
            </Array>
          </mxGeometry>
        </mxCell>
        <mxCell id="QGq4IHv5kDLC5Aj4zrVq-252" style="edgeStyle=orthogonalEdgeStyle;rounded=0;orthogonalLoop=1;jettySize=auto;html=1;exitX=1;exitY=0.3333333333333333;exitDx=0;exitDy=0;exitPerimeter=0;entryX=0;entryY=0.5;entryDx=0;entryDy=0;fillColor=#1ba1e2;strokeColor=#006EAF;endArrow=none;startFill=0;" edge="1" parent="1" source="QGq4IHv5kDLC5Aj4zrVq-275" target="QGq4IHv5kDLC5Aj4zrVq-307">
          <mxGeometry relative="1" as="geometry">
            <Array as="points">
              <mxPoint x="500" y="790" />
              <mxPoint x="500" y="-20" />
            </Array>
          </mxGeometry>
        </mxCell>
        <mxCell id="QGq4IHv5kDLC5Aj4zrVq-253" style="edgeStyle=orthogonalEdgeStyle;rounded=0;orthogonalLoop=1;jettySize=auto;html=1;exitX=1;exitY=0.3333333333333333;exitDx=0;exitDy=0;exitPerimeter=0;entryX=0;entryY=0;entryDx=0;entryDy=0;fillColor=#1ba1e2;strokeColor=#006EAF;endArrow=none;startFill=0;" edge="1" parent="1" source="QGq4IHv5kDLC5Aj4zrVq-275" target="QGq4IHv5kDLC5Aj4zrVq-308">
          <mxGeometry relative="1" as="geometry">
            <mxPoint x="590" y="50" as="targetPoint" />
            <Array as="points">
              <mxPoint x="500" y="790" />
              <mxPoint x="500" y="-40" />
              <mxPoint x="784" y="-40" />
            </Array>
          </mxGeometry>
        </mxCell>
        <mxCell id="QGq4IHv5kDLC5Aj4zrVq-254" style="edgeStyle=orthogonalEdgeStyle;rounded=0;orthogonalLoop=1;jettySize=auto;html=1;exitX=1;exitY=0.3333333333333333;exitDx=0;exitDy=0;exitPerimeter=0;entryX=0;entryY=0;entryDx=0;entryDy=0;fillColor=#1ba1e2;strokeColor=#006EAF;endArrow=none;startFill=0;" edge="1" parent="1" source="QGq4IHv5kDLC5Aj4zrVq-275" target="QGq4IHv5kDLC5Aj4zrVq-322">
          <mxGeometry relative="1" as="geometry">
            <Array as="points">
              <mxPoint x="500" y="790" />
              <mxPoint x="500" y="20" />
              <mxPoint x="874" y="20" />
            </Array>
          </mxGeometry>
        </mxCell>
        <mxCell id="QGq4IHv5kDLC5Aj4zrVq-255" style="edgeStyle=orthogonalEdgeStyle;rounded=0;orthogonalLoop=1;jettySize=auto;html=1;exitX=1;exitY=0.3333333333333333;exitDx=0;exitDy=0;exitPerimeter=0;entryX=0;entryY=0;entryDx=0;entryDy=0;fillColor=#1ba1e2;strokeColor=#006EAF;endArrow=none;startFill=0;" edge="1" parent="1" source="QGq4IHv5kDLC5Aj4zrVq-275" target="QGq4IHv5kDLC5Aj4zrVq-321">
          <mxGeometry relative="1" as="geometry">
            <Array as="points">
              <mxPoint x="500" y="790" />
              <mxPoint x="500" y="40" />
              <mxPoint x="729" y="40" />
            </Array>
          </mxGeometry>
        </mxCell>
        <mxCell id="QGq4IHv5kDLC5Aj4zrVq-256" style="edgeStyle=orthogonalEdgeStyle;rounded=0;orthogonalLoop=1;jettySize=auto;html=1;exitX=1;exitY=0.3333333333333333;exitDx=0;exitDy=0;exitPerimeter=0;entryX=0;entryY=0.5;entryDx=0;entryDy=0;fillColor=#1ba1e2;strokeColor=#006EAF;endArrow=none;startFill=0;" edge="1" parent="1" source="QGq4IHv5kDLC5Aj4zrVq-275" target="QGq4IHv5kDLC5Aj4zrVq-320">
          <mxGeometry relative="1" as="geometry">
            <Array as="points">
              <mxPoint x="500" y="790" />
              <mxPoint x="500" y="60" />
              <mxPoint x="567" y="60" />
            </Array>
          </mxGeometry>
        </mxCell>
        <mxCell id="QGq4IHv5kDLC5Aj4zrVq-257" style="edgeStyle=orthogonalEdgeStyle;rounded=0;orthogonalLoop=1;jettySize=auto;html=1;exitX=1;exitY=0.3333333333333333;exitDx=0;exitDy=0;exitPerimeter=0;entryX=0;entryY=0;entryDx=0;entryDy=0;fillColor=#1ba1e2;strokeColor=#006EAF;endArrow=none;startFill=0;" edge="1" parent="1" source="QGq4IHv5kDLC5Aj4zrVq-275" target="QGq4IHv5kDLC5Aj4zrVq-325">
          <mxGeometry relative="1" as="geometry">
            <Array as="points">
              <mxPoint x="500" y="790" />
              <mxPoint x="500" y="130" />
              <mxPoint x="948" y="130" />
            </Array>
          </mxGeometry>
        </mxCell>
        <mxCell id="QGq4IHv5kDLC5Aj4zrVq-258" style="edgeStyle=orthogonalEdgeStyle;rounded=0;orthogonalLoop=1;jettySize=auto;html=1;exitX=1;exitY=0.3333333333333333;exitDx=0;exitDy=0;exitPerimeter=0;entryX=0;entryY=0;entryDx=0;entryDy=0;fillColor=#1ba1e2;strokeColor=#006EAF;endArrow=none;startFill=0;" edge="1" parent="1" source="QGq4IHv5kDLC5Aj4zrVq-275" target="QGq4IHv5kDLC5Aj4zrVq-324">
          <mxGeometry relative="1" as="geometry">
            <Array as="points">
              <mxPoint x="500" y="790" />
              <mxPoint x="500" y="150" />
              <mxPoint x="762" y="150" />
            </Array>
          </mxGeometry>
        </mxCell>
        <mxCell id="QGq4IHv5kDLC5Aj4zrVq-259" style="edgeStyle=orthogonalEdgeStyle;rounded=0;orthogonalLoop=1;jettySize=auto;html=1;exitX=1;exitY=0.3333333333333333;exitDx=0;exitDy=0;exitPerimeter=0;entryX=0;entryY=0.5;entryDx=0;entryDy=0;fillColor=#1ba1e2;strokeColor=#006EAF;endArrow=none;startFill=0;" edge="1" parent="1" source="QGq4IHv5kDLC5Aj4zrVq-275" target="QGq4IHv5kDLC5Aj4zrVq-323">
          <mxGeometry relative="1" as="geometry">
            <Array as="points">
              <mxPoint x="500" y="790" />
              <mxPoint x="500" y="185" />
            </Array>
          </mxGeometry>
        </mxCell>
        <mxCell id="QGq4IHv5kDLC5Aj4zrVq-260" style="edgeStyle=orthogonalEdgeStyle;rounded=0;orthogonalLoop=1;jettySize=auto;html=1;exitX=1;exitY=0.3333333333333333;exitDx=0;exitDy=0;exitPerimeter=0;entryX=0.5;entryY=0;entryDx=0;entryDy=0;endArrow=none;startFill=0;fillColor=#1ba1e2;strokeColor=#006EAF;" edge="1" parent="1" source="QGq4IHv5kDLC5Aj4zrVq-275" target="QGq4IHv5kDLC5Aj4zrVq-332">
          <mxGeometry relative="1" as="geometry">
            <Array as="points">
              <mxPoint x="500" y="790" />
              <mxPoint x="500" y="220" />
              <mxPoint x="1280" y="220" />
              <mxPoint x="1280" y="280" />
            </Array>
          </mxGeometry>
        </mxCell>
        <mxCell id="QGq4IHv5kDLC5Aj4zrVq-261" style="edgeStyle=orthogonalEdgeStyle;rounded=0;orthogonalLoop=1;jettySize=auto;html=1;exitX=1;exitY=0.3333333333333333;exitDx=0;exitDy=0;exitPerimeter=0;entryX=0.5;entryY=0;entryDx=0;entryDy=0;endArrow=none;startFill=0;fillColor=#1ba1e2;strokeColor=#006EAF;" edge="1" parent="1" source="QGq4IHv5kDLC5Aj4zrVq-275" target="QGq4IHv5kDLC5Aj4zrVq-331">
          <mxGeometry relative="1" as="geometry">
            <Array as="points">
              <mxPoint x="500" y="790" />
              <mxPoint x="500" y="230" />
              <mxPoint x="1100" y="230" />
              <mxPoint x="1100" y="280" />
            </Array>
          </mxGeometry>
        </mxCell>
        <mxCell id="QGq4IHv5kDLC5Aj4zrVq-262" style="edgeStyle=orthogonalEdgeStyle;rounded=0;orthogonalLoop=1;jettySize=auto;html=1;exitX=1;exitY=0.3333333333333333;exitDx=0;exitDy=0;exitPerimeter=0;entryX=0.5;entryY=0;entryDx=0;entryDy=0;endArrow=none;startFill=0;fillColor=#1ba1e2;strokeColor=#006EAF;" edge="1" parent="1" source="QGq4IHv5kDLC5Aj4zrVq-275" target="QGq4IHv5kDLC5Aj4zrVq-330">
          <mxGeometry relative="1" as="geometry">
            <Array as="points">
              <mxPoint x="500" y="790" />
              <mxPoint x="500" y="240" />
              <mxPoint x="940" y="240" />
              <mxPoint x="940" y="280" />
            </Array>
          </mxGeometry>
        </mxCell>
        <mxCell id="QGq4IHv5kDLC5Aj4zrVq-263" style="edgeStyle=orthogonalEdgeStyle;rounded=0;orthogonalLoop=1;jettySize=auto;html=1;exitX=1;exitY=0.3333333333333333;exitDx=0;exitDy=0;exitPerimeter=0;entryX=0.5;entryY=0;entryDx=0;entryDy=0;endArrow=none;startFill=0;fillColor=#1ba1e2;strokeColor=#006EAF;" edge="1" parent="1" source="QGq4IHv5kDLC5Aj4zrVq-275" target="QGq4IHv5kDLC5Aj4zrVq-329">
          <mxGeometry relative="1" as="geometry">
            <Array as="points">
              <mxPoint x="500" y="790" />
              <mxPoint x="500" y="250" />
              <mxPoint x="787" y="250" />
            </Array>
          </mxGeometry>
        </mxCell>
        <mxCell id="QGq4IHv5kDLC5Aj4zrVq-264" style="edgeStyle=orthogonalEdgeStyle;rounded=0;orthogonalLoop=1;jettySize=auto;html=1;exitX=1;exitY=0.3333333333333333;exitDx=0;exitDy=0;exitPerimeter=0;entryX=0.5;entryY=0;entryDx=0;entryDy=0;endArrow=none;startFill=0;fillColor=#1ba1e2;strokeColor=#006EAF;" edge="1" parent="1" source="QGq4IHv5kDLC5Aj4zrVq-275" target="QGq4IHv5kDLC5Aj4zrVq-328">
          <mxGeometry relative="1" as="geometry">
            <Array as="points">
              <mxPoint x="500" y="790" />
              <mxPoint x="500" y="260" />
              <mxPoint x="630" y="260" />
              <mxPoint x="630" y="280" />
            </Array>
          </mxGeometry>
        </mxCell>
        <mxCell id="QGq4IHv5kDLC5Aj4zrVq-265" style="edgeStyle=orthogonalEdgeStyle;rounded=0;orthogonalLoop=1;jettySize=auto;html=1;exitX=1;exitY=0.3333333333333333;exitDx=0;exitDy=0;exitPerimeter=0;entryX=0.5;entryY=0;entryDx=0;entryDy=0;endArrow=none;startFill=0;fillColor=#1ba1e2;strokeColor=#006EAF;" edge="1" parent="1" source="QGq4IHv5kDLC5Aj4zrVq-275" target="QGq4IHv5kDLC5Aj4zrVq-337">
          <mxGeometry relative="1" as="geometry">
            <Array as="points">
              <mxPoint x="500" y="790" />
              <mxPoint x="500" y="360" />
              <mxPoint x="1318" y="360" />
            </Array>
          </mxGeometry>
        </mxCell>
        <mxCell id="QGq4IHv5kDLC5Aj4zrVq-266" style="edgeStyle=orthogonalEdgeStyle;rounded=0;orthogonalLoop=1;jettySize=auto;html=1;exitX=1;exitY=0.3333333333333333;exitDx=0;exitDy=0;exitPerimeter=0;entryX=0.5;entryY=0;entryDx=0;entryDy=0;endArrow=none;startFill=0;fillColor=#1ba1e2;strokeColor=#006EAF;" edge="1" parent="1" source="QGq4IHv5kDLC5Aj4zrVq-275" target="QGq4IHv5kDLC5Aj4zrVq-336">
          <mxGeometry relative="1" as="geometry">
            <Array as="points">
              <mxPoint x="500" y="790" />
              <mxPoint x="500" y="370" />
              <mxPoint x="1148" y="370" />
            </Array>
          </mxGeometry>
        </mxCell>
        <mxCell id="QGq4IHv5kDLC5Aj4zrVq-267" style="edgeStyle=orthogonalEdgeStyle;rounded=0;orthogonalLoop=1;jettySize=auto;html=1;exitX=1;exitY=0.3333333333333333;exitDx=0;exitDy=0;exitPerimeter=0;entryX=0.5;entryY=0;entryDx=0;entryDy=0;endArrow=none;startFill=0;fillColor=#1ba1e2;strokeColor=#006EAF;" edge="1" parent="1" source="QGq4IHv5kDLC5Aj4zrVq-275" target="QGq4IHv5kDLC5Aj4zrVq-335">
          <mxGeometry relative="1" as="geometry">
            <Array as="points">
              <mxPoint x="500" y="790" />
              <mxPoint x="500" y="380" />
              <mxPoint x="968" y="380" />
            </Array>
          </mxGeometry>
        </mxCell>
        <mxCell id="QGq4IHv5kDLC5Aj4zrVq-268" style="edgeStyle=orthogonalEdgeStyle;rounded=0;orthogonalLoop=1;jettySize=auto;html=1;exitX=1;exitY=0.3333333333333333;exitDx=0;exitDy=0;exitPerimeter=0;entryX=0.5;entryY=0;entryDx=0;entryDy=0;endArrow=none;startFill=0;fillColor=#1ba1e2;strokeColor=#006EAF;" edge="1" parent="1" source="QGq4IHv5kDLC5Aj4zrVq-275" target="QGq4IHv5kDLC5Aj4zrVq-334">
          <mxGeometry relative="1" as="geometry">
            <Array as="points">
              <mxPoint x="500" y="790" />
              <mxPoint x="500" y="390" />
              <mxPoint x="790" y="390" />
            </Array>
          </mxGeometry>
        </mxCell>
        <mxCell id="QGq4IHv5kDLC5Aj4zrVq-269" style="edgeStyle=orthogonalEdgeStyle;rounded=0;orthogonalLoop=1;jettySize=auto;html=1;exitX=1;exitY=0.3333333333333333;exitDx=0;exitDy=0;exitPerimeter=0;entryX=0.5;entryY=0;entryDx=0;entryDy=0;endArrow=none;startFill=0;fillColor=#1ba1e2;strokeColor=#006EAF;" edge="1" parent="1" source="QGq4IHv5kDLC5Aj4zrVq-275" target="QGq4IHv5kDLC5Aj4zrVq-333">
          <mxGeometry relative="1" as="geometry">
            <Array as="points">
              <mxPoint x="500" y="790" />
              <mxPoint x="500" y="400" />
              <mxPoint x="627" y="400" />
            </Array>
          </mxGeometry>
        </mxCell>
        <mxCell id="QGq4IHv5kDLC5Aj4zrVq-270" style="edgeStyle=orthogonalEdgeStyle;rounded=0;orthogonalLoop=1;jettySize=auto;html=1;exitX=1;exitY=0.3333333333333333;exitDx=0;exitDy=0;exitPerimeter=0;entryX=0;entryY=0;entryDx=0;entryDy=0;fillColor=#1ba1e2;strokeColor=#006EAF;endArrow=none;startFill=0;" edge="1" parent="1" source="QGq4IHv5kDLC5Aj4zrVq-275" target="QGq4IHv5kDLC5Aj4zrVq-342">
          <mxGeometry relative="1" as="geometry">
            <Array as="points">
              <mxPoint x="500" y="790" />
              <mxPoint x="500" y="510" />
              <mxPoint x="1208" y="510" />
            </Array>
          </mxGeometry>
        </mxCell>
        <mxCell id="QGq4IHv5kDLC5Aj4zrVq-271" style="edgeStyle=orthogonalEdgeStyle;rounded=0;orthogonalLoop=1;jettySize=auto;html=1;exitX=1;exitY=0.3333333333333333;exitDx=0;exitDy=0;exitPerimeter=0;entryX=0;entryY=0;entryDx=0;entryDy=0;fillColor=#1ba1e2;strokeColor=#006EAF;endArrow=none;startFill=0;" edge="1" parent="1" source="QGq4IHv5kDLC5Aj4zrVq-275" target="QGq4IHv5kDLC5Aj4zrVq-341">
          <mxGeometry relative="1" as="geometry">
            <Array as="points">
              <mxPoint x="500" y="790" />
              <mxPoint x="500" y="530" />
              <mxPoint x="1002" y="530" />
            </Array>
          </mxGeometry>
        </mxCell>
        <mxCell id="QGq4IHv5kDLC5Aj4zrVq-272" style="edgeStyle=orthogonalEdgeStyle;rounded=0;orthogonalLoop=1;jettySize=auto;html=1;exitX=1;exitY=0.3333333333333333;exitDx=0;exitDy=0;exitPerimeter=0;entryX=0;entryY=0;entryDx=0;entryDy=0;fillColor=#1ba1e2;strokeColor=#006EAF;endArrow=none;startFill=0;" edge="1" parent="1" source="QGq4IHv5kDLC5Aj4zrVq-275" target="QGq4IHv5kDLC5Aj4zrVq-340">
          <mxGeometry relative="1" as="geometry">
            <Array as="points">
              <mxPoint x="500" y="790" />
              <mxPoint x="500" y="550" />
              <mxPoint x="774" y="550" />
            </Array>
          </mxGeometry>
        </mxCell>
        <mxCell id="QGq4IHv5kDLC5Aj4zrVq-273" style="edgeStyle=orthogonalEdgeStyle;rounded=0;orthogonalLoop=1;jettySize=auto;html=1;exitX=1;exitY=0.3333333333333333;exitDx=0;exitDy=0;exitPerimeter=0;entryX=0;entryY=0;entryDx=0;entryDy=0;fillColor=#1ba1e2;strokeColor=#006EAF;endArrow=none;startFill=0;" edge="1" parent="1" source="QGq4IHv5kDLC5Aj4zrVq-275" target="QGq4IHv5kDLC5Aj4zrVq-339">
          <mxGeometry relative="1" as="geometry">
            <Array as="points">
              <mxPoint x="500" y="790" />
              <mxPoint x="500" y="570" />
              <mxPoint x="590" y="570" />
            </Array>
          </mxGeometry>
        </mxCell>
        <mxCell id="QGq4IHv5kDLC5Aj4zrVq-274" style="edgeStyle=orthogonalEdgeStyle;rounded=0;orthogonalLoop=1;jettySize=auto;html=1;exitX=1;exitY=0.3333333333333333;exitDx=0;exitDy=0;exitPerimeter=0;entryX=0;entryY=0.5;entryDx=0;entryDy=0;fillColor=#1ba1e2;strokeColor=#006EAF;endArrow=none;startFill=0;" edge="1" parent="1" source="QGq4IHv5kDLC5Aj4zrVq-275" target="QGq4IHv5kDLC5Aj4zrVq-338">
          <mxGeometry relative="1" as="geometry">
            <Array as="points">
              <mxPoint x="500" y="790" />
              <mxPoint x="500" y="807" />
            </Array>
          </mxGeometry>
        </mxCell>
        <mxCell id="QGq4IHv5kDLC5Aj4zrVq-275" value="LÃ­der" style="shape=umlActor;verticalLabelPosition=bottom;verticalAlign=top;html=1;" vertex="1" parent="1">
          <mxGeometry x="430" y="770" width="30" height="60" as="geometry" />
        </mxCell>
        <mxCell id="QGq4IHv5kDLC5Aj4zrVq-276" style="edgeStyle=orthogonalEdgeStyle;rounded=0;orthogonalLoop=1;jettySize=auto;html=1;entryX=0.5;entryY=0;entryDx=0;entryDy=0;endArrow=none;startFill=0;fillColor=#e3c800;strokeColor=#B09500;exitX=0;exitY=0.3333333333333333;exitDx=0;exitDy=0;exitPerimeter=0;" edge="1" parent="1" source="QGq4IHv5kDLC5Aj4zrVq-319" target="QGq4IHv5kDLC5Aj4zrVq-288">
          <mxGeometry relative="1" as="geometry">
            <mxPoint x="1040" y="-140" as="sourcePoint" />
            <Array as="points">
              <mxPoint x="1470" y="-80" />
              <mxPoint x="1470" y="-350" />
              <mxPoint x="600" y="-350" />
              <mxPoint x="600" y="-280" />
            </Array>
          </mxGeometry>
        </mxCell>
        <mxCell id="QGq4IHv5kDLC5Aj4zrVq-277" style="edgeStyle=orthogonalEdgeStyle;rounded=0;orthogonalLoop=1;jettySize=auto;html=1;exitX=0;exitY=0.3333333333333333;exitDx=0;exitDy=0;exitPerimeter=0;fillColor=#e3c800;strokeColor=#B09500;endArrow=none;startFill=0;entryX=1;entryY=1;entryDx=0;entryDy=0;" edge="1" parent="1" source="QGq4IHv5kDLC5Aj4zrVq-319" target="QGq4IHv5kDLC5Aj4zrVq-304">
          <mxGeometry relative="1" as="geometry">
            <mxPoint x="430" y="-150" as="targetPoint" />
            <Array as="points">
              <mxPoint x="1470" y="-80" />
              <mxPoint x="1470" y="-126" />
            </Array>
          </mxGeometry>
        </mxCell>
        <mxCell id="QGq4IHv5kDLC5Aj4zrVq-278" style="edgeStyle=orthogonalEdgeStyle;rounded=0;orthogonalLoop=1;jettySize=auto;html=1;exitX=1;exitY=0.3333333333333333;exitDx=0;exitDy=0;exitPerimeter=0;entryX=1;entryY=0;entryDx=0;entryDy=0;endArrow=none;startFill=0;fillColor=#a0522d;strokeColor=#6D1F00;" edge="1" parent="1" source="QGq4IHv5kDLC5Aj4zrVq-284" target="QGq4IHv5kDLC5Aj4zrVq-288">
          <mxGeometry relative="1" as="geometry">
            <Array as="points">
              <mxPoint x="1600" y="140" />
              <mxPoint x="1600" y="-340" />
              <mxPoint x="661" y="-340" />
            </Array>
          </mxGeometry>
        </mxCell>
        <mxCell id="QGq4IHv5kDLC5Aj4zrVq-279" style="edgeStyle=orthogonalEdgeStyle;rounded=0;orthogonalLoop=1;jettySize=auto;html=1;exitX=1;exitY=0.3333333333333333;exitDx=0;exitDy=0;exitPerimeter=0;entryX=1;entryY=0.5;entryDx=0;entryDy=0;fillColor=#a0522d;strokeColor=#6D1F00;endArrow=none;startFill=0;" edge="1" parent="1" source="QGq4IHv5kDLC5Aj4zrVq-284" target="QGq4IHv5kDLC5Aj4zrVq-304">
          <mxGeometry relative="1" as="geometry">
            <Array as="points">
              <mxPoint x="1600" y="140" />
              <mxPoint x="1600" y="-140" />
            </Array>
          </mxGeometry>
        </mxCell>
        <mxCell id="QGq4IHv5kDLC5Aj4zrVq-280" style="edgeStyle=orthogonalEdgeStyle;rounded=0;orthogonalLoop=1;jettySize=auto;html=1;exitX=0;exitY=0.3333333333333333;exitDx=0;exitDy=0;exitPerimeter=0;entryX=0;entryY=1;entryDx=0;entryDy=0;fillColor=#a0522d;strokeColor=#6D1F00;endArrow=none;startFill=0;" edge="1" parent="1" source="QGq4IHv5kDLC5Aj4zrVq-284" target="QGq4IHv5kDLC5Aj4zrVq-342">
          <mxGeometry relative="1" as="geometry">
            <Array as="points">
              <mxPoint x="1500" y="140" />
              <mxPoint x="1500" y="640" />
              <mxPoint x="1208" y="640" />
            </Array>
          </mxGeometry>
        </mxCell>
        <mxCell id="QGq4IHv5kDLC5Aj4zrVq-281" style="edgeStyle=orthogonalEdgeStyle;rounded=0;orthogonalLoop=1;jettySize=auto;html=1;exitX=0;exitY=0.3333333333333333;exitDx=0;exitDy=0;exitPerimeter=0;entryX=0;entryY=1;entryDx=0;entryDy=0;fillColor=#a0522d;strokeColor=#6D1F00;endArrow=none;startFill=0;" edge="1" parent="1" source="QGq4IHv5kDLC5Aj4zrVq-284" target="QGq4IHv5kDLC5Aj4zrVq-341">
          <mxGeometry relative="1" as="geometry">
            <Array as="points">
              <mxPoint x="1500" y="140" />
              <mxPoint x="1500" y="660" />
              <mxPoint x="1002" y="660" />
            </Array>
          </mxGeometry>
        </mxCell>
        <mxCell id="QGq4IHv5kDLC5Aj4zrVq-282" style="edgeStyle=orthogonalEdgeStyle;rounded=0;orthogonalLoop=1;jettySize=auto;html=1;exitX=0;exitY=0.3333333333333333;exitDx=0;exitDy=0;exitPerimeter=0;entryX=0;entryY=1;entryDx=0;entryDy=0;fillColor=#a0522d;strokeColor=#6D1F00;endArrow=none;startFill=0;" edge="1" parent="1" source="QGq4IHv5kDLC5Aj4zrVq-284" target="QGq4IHv5kDLC5Aj4zrVq-340">
          <mxGeometry relative="1" as="geometry">
            <Array as="points">
              <mxPoint x="1500" y="140" />
              <mxPoint x="1500" y="680" />
              <mxPoint x="774" y="680" />
            </Array>
          </mxGeometry>
        </mxCell>
        <mxCell id="QGq4IHv5kDLC5Aj4zrVq-283" style="edgeStyle=orthogonalEdgeStyle;rounded=0;orthogonalLoop=1;jettySize=auto;html=1;exitX=0;exitY=0.3333333333333333;exitDx=0;exitDy=0;exitPerimeter=0;entryX=0;entryY=1;entryDx=0;entryDy=0;fillColor=#a0522d;strokeColor=#6D1F00;endArrow=none;startFill=0;" edge="1" parent="1" source="QGq4IHv5kDLC5Aj4zrVq-284" target="QGq4IHv5kDLC5Aj4zrVq-339">
          <mxGeometry relative="1" as="geometry">
            <Array as="points">
              <mxPoint x="1500" y="140" />
              <mxPoint x="1500" y="700" />
              <mxPoint x="589" y="700" />
            </Array>
          </mxGeometry>
        </mxCell>
        <mxCell id="QGq4IHv5kDLC5Aj4zrVq-284" value="Convidado" style="shape=umlActor;verticalLabelPosition=bottom;verticalAlign=top;html=1;" vertex="1" parent="1">
          <mxGeometry x="1540" y="120" width="30" height="60" as="geometry" />
        </mxCell>
        <mxCell id="QGq4IHv5kDLC5Aj4zrVq-285" style="edgeStyle=orthogonalEdgeStyle;rounded=0;orthogonalLoop=1;jettySize=auto;html=1;exitX=0;exitY=0.3333333333333333;exitDx=0;exitDy=0;exitPerimeter=0;fillColor=#e51400;strokeColor=#B20000;endArrow=none;startFill=0;" edge="1" parent="1" source="QGq4IHv5kDLC5Aj4zrVq-286" target="QGq4IHv5kDLC5Aj4zrVq-327">
          <mxGeometry relative="1" as="geometry">
            <Array as="points">
              <mxPoint x="1500" y="890" />
            </Array>
          </mxGeometry>
        </mxCell>
        <mxCell id="QGq4IHv5kDLC5Aj4zrVq-286" value="Visitante" style="shape=umlActor;verticalLabelPosition=bottom;verticalAlign=top;html=1;" vertex="1" parent="1">
          <mxGeometry x="1500" y="870" width="30" height="60" as="geometry" />
        </mxCell>
        <mxCell id="QGq4IHv5kDLC5Aj4zrVq-287" value="Sistema de gerenciamento de tarefas" style="text;html=1;align=center;verticalAlign=middle;whiteSpace=wrap;rounded=0;" vertex="1" parent="1">
          <mxGeometry x="917.37" y="-380" width="160" height="30" as="geometry" />
        </mxCell>
        <mxCell id="QGq4IHv5kDLC5Aj4zrVq-288" value="&lt;font style=&quot;font-size: 12px; color: light-dark(rgb(22, 27, 33), rgb(255, 255, 255));&quot; face=&quot;-apple-system, BlinkMacSystemFont, Segoe UI, Noto Sans, Helvetica, Arial, sans-serif, Apple Color Emoji, Segoe UI Emoji&quot;&gt;&lt;b style=&quot;&quot;&gt;Logar usuÃ¡rio&lt;/b&gt;&lt;/font&gt;" style="ellipse;whiteSpace=wrap;html=1;" vertex="1" parent="1">
          <mxGeometry x="567.37" y="-280" width="110" height="40" as="geometry" />
        </mxCell>
        <mxCell id="QGq4IHv5kDLC5Aj4zrVq-289" style="edgeStyle=orthogonalEdgeStyle;rounded=0;orthogonalLoop=1;jettySize=auto;html=1;exitX=0;exitY=0.5;exitDx=0;exitDy=0;entryX=1;entryY=0.5;entryDx=0;entryDy=0;endArrow=open;endFill=0;dashed=1;" edge="1" parent="1" source="QGq4IHv5kDLC5Aj4zrVq-293" target="QGq4IHv5kDLC5Aj4zrVq-288">
          <mxGeometry relative="1" as="geometry" />
        </mxCell>
        <mxCell id="QGq4IHv5kDLC5Aj4zrVq-290" value="&amp;lt;&amp;lt;extend&amp;gt;&amp;gt;" style="edgeLabel;html=1;align=center;verticalAlign=middle;resizable=0;points=[];" vertex="1" connectable="0" parent="QGq4IHv5kDLC5Aj4zrVq-289">
          <mxGeometry x="0.0963" relative="1" as="geometry">
            <mxPoint as="offset" />
          </mxGeometry>
        </mxCell>
        <mxCell id="QGq4IHv5kDLC5Aj4zrVq-291" style="rounded=0;orthogonalLoop=1;jettySize=auto;html=1;exitX=1;exitY=0.5;exitDx=0;exitDy=0;entryX=0;entryY=0.5;entryDx=0;entryDy=0;endArrow=open;endFill=0;dashed=1;" edge="1" parent="1" source="QGq4IHv5kDLC5Aj4zrVq-293" target="QGq4IHv5kDLC5Aj4zrVq-326">
          <mxGeometry relative="1" as="geometry" />
        </mxCell>
        <mxCell id="QGq4IHv5kDLC5Aj4zrVq-292" value="&amp;lt;&amp;lt;include&amp;gt;&amp;gt;" style="edgeLabel;html=1;align=center;verticalAlign=middle;resizable=0;points=[];" vertex="1" connectable="0" parent="QGq4IHv5kDLC5Aj4zrVq-291">
          <mxGeometry x="0.0293" y="-2" relative="1" as="geometry">
            <mxPoint as="offset" />
          </mxGeometry>
        </mxCell>
        <mxCell id="QGq4IHv5kDLC5Aj4zrVq-293" value="&lt;font face=&quot;-apple-system, BlinkMacSystemFont, Segoe UI, Noto Sans, Helvetica, Arial, sans-serif, Apple Color Emoji, Segoe UI Emoji&quot;&gt;&lt;b&gt;Cadastrar usuÃ¡rio&lt;/b&gt;&lt;/font&gt;" style="ellipse;whiteSpace=wrap;html=1;" vertex="1" parent="1">
          <mxGeometry x="821.5400000000001" y="-280" width="110" height="40" as="geometry" />
        </mxCell>
        <mxCell id="QGq4IHv5kDLC5Aj4zrVq-294" style="edgeStyle=orthogonalEdgeStyle;rounded=0;orthogonalLoop=1;jettySize=auto;html=1;exitX=0.5;exitY=1;exitDx=0;exitDy=0;exitPerimeter=0;endArrow=none;startFill=0;dashed=1;" edge="1" parent="1">
          <mxGeometry relative="1" as="geometry">
            <mxPoint x="801.3733333333336" y="-260" as="targetPoint" />
            <mxPoint x="801.5400000000001" y="-290" as="sourcePoint" />
          </mxGeometry>
        </mxCell>
        <mxCell id="QGq4IHv5kDLC5Aj4zrVq-295" value="Caso nÃ£o haja registro no sistema" style="shape=note;size=20;whiteSpace=wrap;html=1;" vertex="1" parent="1">
          <mxGeometry x="727.37" y="-330" width="120" height="40" as="geometry" />
        </mxCell>
        <mxCell id="QGq4IHv5kDLC5Aj4zrVq-296" style="rounded=0;orthogonalLoop=1;jettySize=auto;html=1;exitX=0;exitY=0.5;exitDx=0;exitDy=0;entryX=1;entryY=1;entryDx=0;entryDy=0;endArrow=open;endFill=0;dashed=1;" edge="1" parent="1" source="QGq4IHv5kDLC5Aj4zrVq-298" target="QGq4IHv5kDLC5Aj4zrVq-288">
          <mxGeometry relative="1" as="geometry" />
        </mxCell>
        <mxCell id="QGq4IHv5kDLC5Aj4zrVq-297" value="&amp;lt;&amp;lt;extend&amp;gt;&amp;gt;" style="edgeLabel;html=1;align=center;verticalAlign=middle;resizable=0;points=[];" vertex="1" connectable="0" parent="QGq4IHv5kDLC5Aj4zrVq-296">
          <mxGeometry x="-0.0053" y="-4" relative="1" as="geometry">
            <mxPoint y="1" as="offset" />
          </mxGeometry>
        </mxCell>
        <mxCell id="QGq4IHv5kDLC5Aj4zrVq-298" value="&lt;div&gt;&lt;font face=&quot;-apple-system, BlinkMacSystemFont, Segoe UI, Noto Sans, Helvetica, Arial, sans-serif, Apple Color Emoji, Segoe UI Emoji&quot;&gt;&lt;b&gt;Recuperar senha&lt;/b&gt;&lt;/font&gt;&lt;/div&gt;" style="ellipse;whiteSpace=wrap;html=1;container=1;" vertex="1" parent="1">
          <mxGeometry x="821.5400000000001" y="-230" width="110" height="40" as="geometry" />
        </mxCell>
        <mxCell id="QGq4IHv5kDLC5Aj4zrVq-299" style="rounded=0;orthogonalLoop=1;jettySize=auto;html=1;exitX=1;exitY=0.5;exitDx=0;exitDy=0;entryX=0;entryY=0.5;entryDx=0;entryDy=0;dashed=1;endArrow=open;endFill=0;" edge="1" parent="1" source="QGq4IHv5kDLC5Aj4zrVq-302" target="QGq4IHv5kDLC5Aj4zrVq-303">
          <mxGeometry relative="1" as="geometry" />
        </mxCell>
        <mxCell id="QGq4IHv5kDLC5Aj4zrVq-300" value="&amp;lt;&amp;gt;" style="edgeLabel;html=1;align=center;verticalAlign=middle;resizable=0;points=[];" vertex="1" connectable="0" parent="QGq4IHv5kDLC5Aj4zrVq-299">
          <mxGeometry x="-0.032" y="-1" relative="1" as="geometry">
            <mxPoint as="offset" />
          </mxGeometry>
        </mxCell>
        <mxCell id="QGq4IHv5kDLC5Aj4zrVq-301" value="&amp;lt;&amp;lt;includ&amp;gt;&amp;gt;" style="edgeLabel;html=1;align=center;verticalAlign=middle;resizable=0;points=[];" vertex="1" connectable="0" parent="QGq4IHv5kDLC5Aj4zrVq-299">
          <mxGeometry x="0.0099" y="-1" relative="1" as="geometry">
            <mxPoint as="offset" />
          </mxGeometry>
        </mxCell>
        <mxCell id="QGq4IHv5kDLC5Aj4zrVq-302" value="&lt;font face=&quot;-apple-system, BlinkMacSystemFont, Segoe UI, Noto Sans, Helvetica, Arial, sans-serif, Apple Color Emoji, Segoe UI Emoji&quot;&gt;&lt;b&gt;Deletar usuÃ¡rio&lt;/b&gt;&lt;/font&gt;" style="ellipse;whiteSpace=wrap;html=1;" vertex="1" parent="1">
          <mxGeometry x="567.37" y="-220" width="110" height="40" as="geometry" />
        </mxCell>
        <mxCell id="QGq4IHv5kDLC5Aj4zrVq-303" value="&lt;div&gt;&lt;font face=&quot;-apple-system, BlinkMacSystemFont, Segoe UI, Noto Sans, Helvetica, Arial, sans-serif, Apple Color Emoji, Segoe UI Emoji&quot;&gt;&lt;b&gt;Validar conta&lt;/b&gt;&lt;/font&gt;&lt;/div&gt;" style="ellipse;whiteSpace=wrap;html=1;" vertex="1" parent="1">
          <mxGeometry x="822.37" y="-180" width="110" height="40" as="geometry" />
        </mxCell>
        <mxCell id="QGq4IHv5kDLC5Aj4zrVq-304" value="&lt;font face=&quot;-apple-system, BlinkMacSystemFont, Segoe UI, Noto Sans, Helvetica, Arial, sans-serif, Apple Color Emoji, Segoe UI Emoji&quot;&gt;&lt;b&gt;Apagar conta&lt;/b&gt;&lt;/font&gt;" style="ellipse;whiteSpace=wrap;html=1;" vertex="1" parent="1">
          <mxGeometry x="567.37" y="-160" width="110" height="40" as="geometry" />
        </mxCell>
        <mxCell id="QGq4IHv5kDLC5Aj4zrVq-305" value="&lt;font face=&quot;-apple-system, BlinkMacSystemFont, Segoe UI, Noto Sans, Helvetica, Arial, sans-serif, Apple Color Emoji, Segoe UI Emoji&quot;&gt;&lt;b&gt;Criar organizaÃ§Ã£o&lt;/b&gt;&lt;/font&gt;" style="ellipse;whiteSpace=wrap;html=1;" vertex="1" parent="1">
          <mxGeometry x="567.37" y="-100" width="110" height="40" as="geometry" />
        </mxCell>
        <mxCell id="QGq4IHv5kDLC5Aj4zrVq-306" value="&lt;div&gt;&lt;font face=&quot;-apple-system, BlinkMacSystemFont, Segoe UI, Noto Sans, Helvetica, Arial, sans-serif, Apple Color Emoji, Segoe UI Emoji&quot;&gt;&lt;b&gt;Deletar organizaÃ§Ã£o&lt;/b&gt;&lt;/font&gt;&lt;/div&gt;" style="ellipse;whiteSpace=wrap;html=1;" vertex="1" parent="1">
          <mxGeometry x="742.37" y="-100" width="125" height="40" as="geometry" />
        </mxCell>
        <mxCell id="QGq4IHv5kDLC5Aj4zrVq-307" value="&lt;font face=&quot;-apple-system, BlinkMacSystemFont, Segoe UI, Noto Sans, Helvetica, Arial, sans-serif, Apple Color Emoji, Segoe UI Emoji&quot;&gt;&lt;b&gt;Criar grupo de trabalho&lt;/b&gt;&lt;/font&gt;" style="ellipse;whiteSpace=wrap;html=1;" vertex="1" parent="1">
          <mxGeometry x="567.37" y="-40" width="110" height="40" as="geometry" />
        </mxCell>
        <mxCell id="QGq4IHv5kDLC5Aj4zrVq-308" value="&lt;font face=&quot;-apple-system, BlinkMacSystemFont, Segoe UI, Noto Sans, Helvetica, Arial, sans-serif, Apple Color Emoji, Segoe UI Emoji&quot;&gt;&lt;b&gt;Deletar grupo de trabalho&lt;/b&gt;&lt;/font&gt;" style="ellipse;whiteSpace=wrap;html=1;" vertex="1" parent="1">
          <mxGeometry x="767.37" y="-40" width="110" height="40" as="geometry" />
        </mxCell>
        <mxCell id="QGq4IHv5kDLC5Aj4zrVq-309" style="edgeStyle=orthogonalEdgeStyle;rounded=0;orthogonalLoop=1;jettySize=auto;html=1;exitX=0;exitY=0.3333333333333333;exitDx=0;exitDy=0;exitPerimeter=0;entryX=0.5;entryY=1;entryDx=0;entryDy=0;fillColor=#e3c800;strokeColor=#B09500;endArrow=none;startFill=0;" edge="1" parent="1" source="QGq4IHv5kDLC5Aj4zrVq-319" target="QGq4IHv5kDLC5Aj4zrVq-329">
          <mxGeometry relative="1" as="geometry">
            <Array as="points">
              <mxPoint x="1470" y="-80" />
              <mxPoint x="1470" y="340" />
              <mxPoint x="787" y="340" />
            </Array>
          </mxGeometry>
        </mxCell>
        <mxCell id="QGq4IHv5kDLC5Aj4zrVq-310" style="edgeStyle=orthogonalEdgeStyle;rounded=0;orthogonalLoop=1;jettySize=auto;html=1;exitX=0;exitY=0.3333333333333333;exitDx=0;exitDy=0;exitPerimeter=0;entryX=0.5;entryY=1;entryDx=0;entryDy=0;fillColor=#e3c800;strokeColor=#B09500;endArrow=none;startFill=0;" edge="1" parent="1" source="QGq4IHv5kDLC5Aj4zrVq-319" target="QGq4IHv5kDLC5Aj4zrVq-328">
          <mxGeometry relative="1" as="geometry">
            <Array as="points">
              <mxPoint x="1470" y="-80" />
              <mxPoint x="1470" y="350" />
              <mxPoint x="630" y="350" />
              <mxPoint x="630" y="320" />
            </Array>
          </mxGeometry>
        </mxCell>
        <mxCell id="QGq4IHv5kDLC5Aj4zrVq-311" style="edgeStyle=orthogonalEdgeStyle;rounded=0;orthogonalLoop=1;jettySize=auto;html=1;exitX=0;exitY=0.3333333333333333;exitDx=0;exitDy=0;exitPerimeter=0;entryX=0.5;entryY=1;entryDx=0;entryDy=0;endArrow=none;startFill=0;fillColor=#e3c800;strokeColor=#B09500;" edge="1" parent="1" source="QGq4IHv5kDLC5Aj4zrVq-319" target="QGq4IHv5kDLC5Aj4zrVq-337">
          <mxGeometry relative="1" as="geometry">
            <Array as="points">
              <mxPoint x="1470" y="-80" />
              <mxPoint x="1470" y="470" />
              <mxPoint x="1318" y="470" />
            </Array>
          </mxGeometry>
        </mxCell>
        <mxCell id="QGq4IHv5kDLC5Aj4zrVq-312" style="edgeStyle=orthogonalEdgeStyle;rounded=0;orthogonalLoop=1;jettySize=auto;html=1;exitX=0;exitY=0.3333333333333333;exitDx=0;exitDy=0;exitPerimeter=0;entryX=0.5;entryY=1;entryDx=0;entryDy=0;endArrow=none;startFill=0;fillColor=#e3c800;strokeColor=#B09500;" edge="1" parent="1" source="QGq4IHv5kDLC5Aj4zrVq-319" target="QGq4IHv5kDLC5Aj4zrVq-334">
          <mxGeometry relative="1" as="geometry">
            <Array as="points">
              <mxPoint x="1470" y="-80" />
              <mxPoint x="1470" y="480" />
              <mxPoint x="790" y="480" />
            </Array>
          </mxGeometry>
        </mxCell>
        <mxCell id="QGq4IHv5kDLC5Aj4zrVq-313" style="edgeStyle=orthogonalEdgeStyle;rounded=0;orthogonalLoop=1;jettySize=auto;html=1;exitX=0;exitY=0.3333333333333333;exitDx=0;exitDy=0;exitPerimeter=0;entryX=0.5;entryY=1;entryDx=0;entryDy=0;endArrow=none;startFill=0;fillColor=#e3c800;strokeColor=#B09500;" edge="1" parent="1" source="QGq4IHv5kDLC5Aj4zrVq-319" target="QGq4IHv5kDLC5Aj4zrVq-333">
          <mxGeometry relative="1" as="geometry">
            <Array as="points">
              <mxPoint x="1470" y="-80" />
              <mxPoint x="1470" y="490" />
              <mxPoint x="627" y="490" />
            </Array>
          </mxGeometry>
        </mxCell>
        <mxCell id="QGq4IHv5kDLC5Aj4zrVq-314" style="edgeStyle=orthogonalEdgeStyle;rounded=0;orthogonalLoop=1;jettySize=auto;html=1;exitX=0;exitY=0.3333333333333333;exitDx=0;exitDy=0;exitPerimeter=0;entryX=0.5;entryY=1;entryDx=0;entryDy=0;fillColor=#e3c800;strokeColor=#B09500;endArrow=none;startFill=0;" edge="1" parent="1" source="QGq4IHv5kDLC5Aj4zrVq-319" target="QGq4IHv5kDLC5Aj4zrVq-342">
          <mxGeometry relative="1" as="geometry">
            <Array as="points">
              <mxPoint x="1470" y="-80" />
              <mxPoint x="1470" y="630" />
              <mxPoint x="1257" y="630" />
            </Array>
          </mxGeometry>
        </mxCell>
        <mxCell id="QGq4IHv5kDLC5Aj4zrVq-315" style="edgeStyle=orthogonalEdgeStyle;rounded=0;orthogonalLoop=1;jettySize=auto;html=1;exitX=0;exitY=0.3333333333333333;exitDx=0;exitDy=0;exitPerimeter=0;entryX=0.5;entryY=1;entryDx=0;entryDy=0;fillColor=#e3c800;strokeColor=#B09500;endArrow=none;startFill=0;" edge="1" parent="1" source="QGq4IHv5kDLC5Aj4zrVq-319" target="QGq4IHv5kDLC5Aj4zrVq-341">
          <mxGeometry relative="1" as="geometry">
            <Array as="points">
              <mxPoint x="1470" y="-80" />
              <mxPoint x="1470" y="650" />
              <mxPoint x="1054" y="650" />
            </Array>
          </mxGeometry>
        </mxCell>
        <mxCell id="QGq4IHv5kDLC5Aj4zrVq-316" style="edgeStyle=orthogonalEdgeStyle;rounded=0;orthogonalLoop=1;jettySize=auto;html=1;exitX=0;exitY=0.3333333333333333;exitDx=0;exitDy=0;exitPerimeter=0;entryX=0.5;entryY=1;entryDx=0;entryDy=0;fillColor=#e3c800;strokeColor=#B09500;endArrow=none;startFill=0;" edge="1" parent="1" source="QGq4IHv5kDLC5Aj4zrVq-319" target="QGq4IHv5kDLC5Aj4zrVq-340">
          <mxGeometry relative="1" as="geometry">
            <Array as="points">
              <mxPoint x="1470" y="-80" />
              <mxPoint x="1470" y="670" />
              <mxPoint x="834" y="670" />
            </Array>
          </mxGeometry>
        </mxCell>
        <mxCell id="QGq4IHv5kDLC5Aj4zrVq-317" style="edgeStyle=orthogonalEdgeStyle;rounded=0;orthogonalLoop=1;jettySize=auto;html=1;exitX=0;exitY=0.3333333333333333;exitDx=0;exitDy=0;exitPerimeter=0;entryX=0.5;entryY=1;entryDx=0;entryDy=0;fillColor=#e3c800;strokeColor=#B09500;endArrow=none;startFill=0;" edge="1" parent="1" source="QGq4IHv5kDLC5Aj4zrVq-319" target="QGq4IHv5kDLC5Aj4zrVq-339">
          <mxGeometry relative="1" as="geometry">
            <Array as="points">
              <mxPoint x="1470" y="-80" />
              <mxPoint x="1470" y="690" />
              <mxPoint x="631" y="690" />
            </Array>
          </mxGeometry>
        </mxCell>
        <mxCell id="QGq4IHv5kDLC5Aj4zrVq-318" style="edgeStyle=orthogonalEdgeStyle;rounded=0;orthogonalLoop=1;jettySize=auto;html=1;exitX=0;exitY=0.3333333333333333;exitDx=0;exitDy=0;exitPerimeter=0;entryX=1;entryY=0.5;entryDx=0;entryDy=0;fillColor=#e3c800;strokeColor=#B09500;endArrow=none;startFill=0;" edge="1" parent="1" source="QGq4IHv5kDLC5Aj4zrVq-319" target="QGq4IHv5kDLC5Aj4zrVq-338">
          <mxGeometry relative="1" as="geometry">
            <Array as="points">
              <mxPoint x="1470" y="-80" />
              <mxPoint x="1470" y="807" />
            </Array>
          </mxGeometry>
        </mxCell>
        <mxCell id="QGq4IHv5kDLC5Aj4zrVq-319" value="Membro" style="shape=umlActor;verticalLabelPosition=bottom;verticalAlign=top;html=1;" vertex="1" parent="1">
          <mxGeometry x="1540" y="-100" width="30" height="60" as="geometry" />
        </mxCell>
        <mxCell id="QGq4IHv5kDLC5Aj4zrVq-320" value="&lt;font face=&quot;-apple-system, BlinkMacSystemFont, Segoe UI, Noto Sans, Helvetica, Arial, sans-serif, Apple Color Emoji, Segoe UI Emoji&quot;&gt;&lt;b&gt;Criar Quadro Kanban&lt;/b&gt;&lt;/font&gt;" style="ellipse;whiteSpace=wrap;html=1;" vertex="1" parent="1">
          <mxGeometry x="567.37" y="70" width="110" height="40" as="geometry" />
        </mxCell>
        <mxCell id="QGq4IHv5kDLC5Aj4zrVq-321" value="&lt;font face=&quot;-apple-system, BlinkMacSystemFont, Segoe UI, Noto Sans, Helvetica, Arial, sans-serif, Apple Color Emoji, Segoe UI Emoji&quot;&gt;&lt;b&gt;Editar Quadro Kanban&lt;/b&gt;&lt;/font&gt;" style="ellipse;whiteSpace=wrap;html=1;" vertex="1" parent="1">
          <mxGeometry x="712.37" y="70" width="110" height="40" as="geometry" />
        </mxCell>
        <mxCell id="QGq4IHv5kDLC5Aj4zrVq-322" value="&lt;font face=&quot;-apple-system, BlinkMacSystemFont, Segoe UI, Noto Sans, Helvetica, Arial, sans-serif, Apple Color Emoji, Segoe UI Emoji&quot;&gt;&lt;b&gt;Deletar Quadro Kanban&lt;/b&gt;&lt;/font&gt;" style="ellipse;whiteSpace=wrap;html=1;" vertex="1" parent="1">
          <mxGeometry x="857.37" y="70" width="110" height="40" as="geometry" />
        </mxCell>
        <mxCell id="QGq4IHv5kDLC5Aj4zrVq-323" value="&lt;font face=&quot;-apple-system, BlinkMacSystemFont, Segoe UI, Noto Sans, Helvetica, Arial, sans-serif, Apple Color Emoji, Segoe UI Emoji&quot;&gt;&lt;b&gt;Compartilhar acesso a um recurso&lt;/b&gt;&lt;/font&gt;" style="ellipse;whiteSpace=wrap;html=1;" vertex="1" parent="1">
          <mxGeometry x="567.37" y="160" width="150" height="50" as="geometry" />
        </mxCell>
        <mxCell id="QGq4IHv5kDLC5Aj4zrVq-324" value="&lt;div&gt;&lt;font face=&quot;-apple-system, BlinkMacSystemFont, Segoe UI, Noto Sans, Helvetica, Arial, sans-serif, Apple Color Emoji, Segoe UI Emoji&quot;&gt;&lt;b&gt;Controle de permissÃµes em recursos compartilhados&lt;/b&gt;&lt;/font&gt;&lt;/div&gt;" style="ellipse;whiteSpace=wrap;html=1;" vertex="1" parent="1">
          <mxGeometry x="737.37" y="160" width="170" height="50" as="geometry" />
        </mxCell>
        <mxCell id="QGq4IHv5kDLC5Aj4zrVq-325" value="&lt;font face=&quot;-apple-system, BlinkMacSystemFont, Segoe UI, Noto Sans, Helvetica, Arial, sans-serif, Apple Color Emoji, Segoe UI Emoji&quot;&gt;&lt;b&gt;Compartilhar recurso com link&lt;/b&gt;&lt;/font&gt;" style="ellipse;whiteSpace=wrap;html=1;" vertex="1" parent="1">
          <mxGeometry x="927.37" y="160" width="140" height="50" as="geometry" />
        </mxCell>
        <mxCell id="QGq4IHv5kDLC5Aj4zrVq-326" value="&lt;b style=&quot;font-family: -apple-system, BlinkMacSystemFont, &amp;quot;Segoe UI&amp;quot;, &amp;quot;Noto Sans&amp;quot;, Helvetica, Arial, sans-serif, &amp;quot;Apple Color Emoji&amp;quot;, &amp;quot;Segoe UI Emoji&amp;quot;;&quot;&gt;Validar e-mail&lt;/b&gt;" style="ellipse;whiteSpace=wrap;html=1;" vertex="1" parent="1">
          <mxGeometry x="1077.37" y="-280" width="110" height="40" as="geometry" />
        </mxCell>
        <mxCell id="QGq4IHv5kDLC5Aj4zrVq-327" value="&lt;font face=&quot;-apple-system, BlinkMacSystemFont, Segoe UI, Noto Sans, Helvetica, Arial, sans-serif, Apple Color Emoji, Segoe UI Emoji&quot;&gt;&lt;b&gt;Acessar recurso como visitante (somente leitura)&lt;/b&gt;&lt;/font&gt;" style="ellipse;whiteSpace=wrap;html=1;" vertex="1" parent="1">
          <mxGeometry x="885" y="860" width="170" height="50" as="geometry" />
        </mxCell>
        <mxCell id="QGq4IHv5kDLC5Aj4zrVq-328" value="&lt;font face=&quot;-apple-system, BlinkMacSystemFont, Segoe UI, Noto Sans, Helvetica, Arial, sans-serif, Apple Color Emoji, Segoe UI Emoji&quot;&gt;&lt;b&gt;Criar tarefa&lt;/b&gt;&lt;/font&gt;" style="ellipse;whiteSpace=wrap;html=1;" vertex="1" parent="1">
          <mxGeometry x="577.37" y="280" width="110" height="40" as="geometry" />
        </mxCell>
        <mxCell id="QGq4IHv5kDLC5Aj4zrVq-329" value="&lt;font face=&quot;-apple-system, BlinkMacSystemFont, Segoe UI, Noto Sans, Helvetica, Arial, sans-serif, Apple Color Emoji, Segoe UI Emoji&quot;&gt;&lt;b&gt;Editar tarefa&lt;/b&gt;&lt;/font&gt;" style="ellipse;whiteSpace=wrap;html=1;" vertex="1" parent="1">
          <mxGeometry x="732.37" y="280" width="110" height="40" as="geometry" />
        </mxCell>
        <mxCell id="QGq4IHv5kDLC5Aj4zrVq-330" value="&lt;font face=&quot;-apple-system, BlinkMacSystemFont, Segoe UI, Noto Sans, Helvetica, Arial, sans-serif, Apple Color Emoji, Segoe UI Emoji&quot;&gt;&lt;b&gt;Deletar tarefa&lt;/b&gt;&lt;/font&gt;" style="ellipse;whiteSpace=wrap;html=1;" vertex="1" parent="1">
          <mxGeometry x="887.37" y="280" width="110" height="40" as="geometry" />
        </mxCell>
        <mxCell id="QGq4IHv5kDLC5Aj4zrVq-331" value="&lt;font face=&quot;-apple-system, BlinkMacSystemFont, Segoe UI, Noto Sans, Helvetica, Arial, sans-serif, Apple Color Emoji, Segoe UI Emoji&quot;&gt;&lt;b&gt;Cancelar tarefa&lt;/b&gt;&lt;/font&gt;" style="ellipse;whiteSpace=wrap;html=1;" vertex="1" parent="1">
          <mxGeometry x="1047.37" y="280" width="110" height="40" as="geometry" />
        </mxCell>
        <mxCell id="QGq4IHv5kDLC5Aj4zrVq-332" value="&lt;font face=&quot;-apple-system, BlinkMacSystemFont, Segoe UI, Noto Sans, Helvetica, Arial, sans-serif, Apple Color Emoji, Segoe UI Emoji&quot;&gt;&lt;b&gt;Bloquear/desbloquear tarefa&lt;/b&gt;&lt;/font&gt;" style="ellipse;whiteSpace=wrap;html=1;" vertex="1" parent="1">
          <mxGeometry x="1197.37" y="280" width="170" height="40" as="geometry" />
        </mxCell>
        <mxCell id="QGq4IHv5kDLC5Aj4zrVq-333" value="&lt;font face=&quot;-apple-system, BlinkMacSystemFont, Segoe UI, Noto Sans, Helvetica, Arial, sans-serif, Apple Color Emoji, Segoe UI Emoji&quot;&gt;&lt;b&gt;Mover tarefa entre estÃ¡gios&lt;/b&gt;&lt;/font&gt;" style="ellipse;whiteSpace=wrap;html=1;" vertex="1" parent="1">
          <mxGeometry x="572.12" y="414" width="110" height="40" as="geometry" />
        </mxCell>
        <mxCell id="QGq4IHv5kDLC5Aj4zrVq-334" value="&lt;font face=&quot;-apple-system, BlinkMacSystemFont, Segoe UI, Noto Sans, Helvetica, Arial, sans-serif, Apple Color Emoji, Segoe UI Emoji&quot;&gt;&lt;b&gt;Inserir comentÃ¡rios e menÃ§Ãµes&lt;/b&gt;&lt;/font&gt;" style="ellipse;whiteSpace=wrap;html=1;" vertex="1" parent="1">
          <mxGeometry x="722.62" y="414" width="135" height="40" as="geometry" />
        </mxCell>
        <mxCell id="QGq4IHv5kDLC5Aj4zrVq-335" value="&lt;font face=&quot;-apple-system, BlinkMacSystemFont, Segoe UI, Noto Sans, Helvetica, Arial, sans-serif, Apple Color Emoji, Segoe UI Emoji&quot;&gt;&lt;b&gt;Atribuir tarefa a usuÃ¡rios&lt;/b&gt;&lt;/font&gt;" style="ellipse;whiteSpace=wrap;html=1;" vertex="1" parent="1">
          <mxGeometry x="902.62" y="414" width="130" height="40" as="geometry" />
        </mxCell>
        <mxCell id="QGq4IHv5kDLC5Aj4zrVq-336" value="&lt;font face=&quot;-apple-system, BlinkMacSystemFont, Segoe UI, Noto Sans, Helvetica, Arial, sans-serif, Apple Color Emoji, Segoe UI Emoji&quot;&gt;&lt;b&gt;Definir prazos e datas de entrega&lt;/b&gt;&lt;/font&gt;" style="ellipse;whiteSpace=wrap;html=1;" vertex="1" parent="1">
          <mxGeometry x="1077.62" y="414" width="140" height="40" as="geometry" />
        </mxCell>
        <mxCell id="QGq4IHv5kDLC5Aj4zrVq-337" value="&lt;font face=&quot;-apple-system, BlinkMacSystemFont, Segoe UI, Noto Sans, Helvetica, Arial, sans-serif, Apple Color Emoji, Segoe UI Emoji&quot;&gt;&lt;b&gt;Criar checklists&lt;/b&gt;&lt;/font&gt;" style="ellipse;whiteSpace=wrap;html=1;" vertex="1" parent="1">
          <mxGeometry x="1262.62" y="414" width="110" height="40" as="geometry" />
        </mxCell>
        <mxCell id="QGq4IHv5kDLC5Aj4zrVq-338" value="&lt;font face=&quot;-apple-system, BlinkMacSystemFont, Segoe UI, Noto Sans, Helvetica, Arial, sans-serif, Apple Color Emoji, Segoe UI Emoji&quot;&gt;&lt;b&gt;Visualizar Dashboard de desempenho&lt;/b&gt;&lt;/font&gt;" style="ellipse;whiteSpace=wrap;html=1;" vertex="1" parent="1">
          <mxGeometry x="897.62" y="787" width="140" height="40" as="geometry" />
        </mxCell>
        <mxCell id="QGq4IHv5kDLC5Aj4zrVq-339" value="&lt;font face=&quot;-apple-system, BlinkMacSystemFont, Segoe UI, Noto Sans, Helvetica, Arial, sans-serif, Apple Color Emoji, Segoe UI Emoji&quot;&gt;&lt;b&gt;Integrar com Google Calendar&lt;/b&gt;&lt;/font&gt;" style="ellipse;whiteSpace=wrap;html=1;" vertex="1" parent="1">
          <mxGeometry x="572.12" y="580" width="117.88" height="40" as="geometry" />
        </mxCell>
        <mxCell id="QGq4IHv5kDLC5Aj4zrVq-340" value="&lt;font face=&quot;-apple-system, BlinkMacSystemFont, Segoe UI, Noto Sans, Helvetica, Arial, sans-serif, Apple Color Emoji, Segoe UI Emoji&quot;&gt;&lt;b&gt;Usar sistema no modo offline&lt;/b&gt;&lt;/font&gt;" style="ellipse;whiteSpace=wrap;html=1;" vertex="1" parent="1">
          <mxGeometry x="749.74" y="580" width="167.63" height="40" as="geometry" />
        </mxCell>
        <mxCell id="QGq4IHv5kDLC5Aj4zrVq-341" value="&lt;font face=&quot;-apple-system, BlinkMacSystemFont, Segoe UI, Noto Sans, Helvetica, Arial, sans-serif, Apple Color Emoji, Segoe UI Emoji&quot;&gt;&lt;b&gt;Aplicar tags e filtros personalizados&lt;/b&gt;&lt;/font&gt;" style="ellipse;whiteSpace=wrap;html=1;" vertex="1" parent="1">
          <mxGeometry x="979.9999999999999" y="580" width="147.37" height="40" as="geometry" />
        </mxCell>
        <mxCell id="QGq4IHv5kDLC5Aj4zrVq-342" value="&lt;font face=&quot;-apple-system, BlinkMacSystemFont, Segoe UI, Noto Sans, Helvetica, Arial, sans-serif, Apple Color Emoji, Segoe UI Emoji&quot;&gt;&lt;b&gt;Configurar notificaÃ§Ãµes&lt;/b&gt;&lt;/font&gt;" style="ellipse;whiteSpace=wrap;html=1;" vertex="1" parent="1">
          <mxGeometry x="1187.37" y="580" width="140" height="40" as="geometry" />
        </mxCell>
      </root>
    </mxGraphModel>
  </diagram>
</mxfile>
